<svg width="36" height="36" viewBox="0 0 36 36" fill="none" xmlns="http://www.w3.org/2000/svg">
<path d="M20.8631 9.83524C21.0518 9.43011 21.1647 8.98352 21.1647 8.50781C21.1647 6.76318 19.7455 5.34375 18.0006 5.34375C16.256 5.34375 14.8366 6.76318 14.8366 8.50781C14.8366 8.98352 14.9495 9.43011 15.1384 9.83524C8.11652 11.1253 2.71646 17.059 2.23389 24.3281H33.7677C33.2848 17.059 27.885 11.1253 20.8631 9.83524ZM18.0006 9.5625C17.4189 9.5625 16.946 9.08981 16.946 8.50781C16.946 7.92581 17.4189 7.45312 18.0006 7.45312C18.5826 7.45312 19.0553 7.92581 19.0553 8.50781C19.0553 9.08981 18.5826 9.5625 18.0006 9.5625Z" fill="#CDA922"/>
<path d="M0 26.4375C0.48999 28.8416 2.79794 30.6562 5.3443 30.6562H30.6568C33.2034 30.6562 35.51 28.8416 36 26.4375H0Z" fill="#CDA922"/>
</svg>
