<svg width="32" height="32" viewBox="0 0 32 32" fill="none" xmlns="http://www.w3.org/2000/svg">
<path d="M21 6H11C8.23858 6 6 8.23858 6 11V21C6 23.7614 8.23858 26 11 26H21C23.7614 26 26 23.7614 26 21V11C26 8.23858 23.7614 6 21 6Z" stroke="#CDA922" stroke-linecap="round" stroke-linejoin="round"/>
<path d="M20 15.3701C20.1234 16.2023 19.9812 17.0523 19.5937 17.7991C19.2062 18.5459 18.5931 19.1515 17.8416 19.5297C17.0901 19.908 16.2384 20.0397 15.4077 19.906C14.5771 19.7723 13.8097 19.3801 13.2148 18.7852C12.6199 18.1903 12.2277 17.4229 12.094 16.5923C11.9604 15.7616 12.092 14.91 12.4703 14.1584C12.8485 13.4069 13.4541 12.7938 14.2009 12.4063C14.9477 12.0188 15.7977 11.8766 16.63 12.0001C17.4789 12.1259 18.2648 12.5215 18.8716 13.1284C19.4785 13.7352 19.8741 14.5211 20 15.3701Z" stroke="#CDA922" stroke-linecap="round" stroke-linejoin="round"/>
<path d="M21.5 10.5H21.51" stroke="#CDA922" stroke-width="2" stroke-linecap="round" stroke-linejoin="round"/>
<rect x="0.5" y="0.5" width="31" height="31" rx="3.5" stroke="#CDA922"/>
</svg>
