<svg width="32" height="32" viewBox="0 0 32 32" fill="none" xmlns="http://www.w3.org/2000/svg">
<path d="M19.3333 12.6667C20.6593 12.6667 21.9311 13.1935 22.8688 14.1312C23.8065 15.0689 24.3333 16.3407 24.3333 17.6667V23.5001H20.9999V17.6667C20.9999 17.2247 20.8243 16.8008 20.5118 16.4882C20.1992 16.1757 19.7753 16.0001 19.3333 16.0001C18.8912 16.0001 18.4673 16.1757 18.1547 16.4882C17.8422 16.8008 17.6666 17.2247 17.6666 17.6667V23.5001H14.3333V17.6667C14.3333 16.3407 14.86 15.0689 15.7977 14.1312C16.7354 13.1935 18.0072 12.6667 19.3333 12.6667V12.6667Z" stroke="#CDA922" stroke-linecap="round" stroke-linejoin="round"/>
<path d="M11.0001 13.5H7.66675V23.5H11.0001V13.5Z" stroke="#CDA922" stroke-linecap="round" stroke-linejoin="round"/>
<path d="M9.33341 11.0001C10.2539 11.0001 11.0001 10.2539 11.0001 9.33341C11.0001 8.41294 10.2539 7.66675 9.33341 7.66675C8.41294 7.66675 7.66675 8.41294 7.66675 9.33341C7.66675 10.2539 8.41294 11.0001 9.33341 11.0001Z" stroke="#CDA922" stroke-linecap="round" stroke-linejoin="round"/>
<rect x="0.5" y="0.5" width="31" height="31" rx="3.5" stroke="#CDA922"/>
</svg>
