<svg width="192" height="70" viewBox="0 0 192 70" fill="none" xmlns="http://www.w3.org/2000/svg">
<g clip-path="url(#clip0_362_861)">
<path d="M22.8908 3.23364e-05C22.8908 3.23364e-05 24.2831 4.88902 15.3793 8.77431C6.47547 12.6596 -7.25256 18.1314 4.59758 38.5939C4.59758 38.5939 -0.615186 28.395 3.98241 21.0777C4.69471 19.9445 9.81035 18.358 6.02219 27.2942C5.21275 29.2045 4.92135 34.1258 7.5763 34.0611C8.25623 34.0287 7.96483 33.5754 7.28491 33.2516C6.44309 32.8631 5.53653 29.8844 9.71321 24.3802C13.8899 18.8761 9.90748 17.3543 9.32468 17.4838C9.32468 17.4838 24.6392 15.2498 24.6392 5.60133C24.5745 -0.064723 22.8908 3.23364e-05 22.8908 3.23364e-05Z" fill="#CDA922"/>
<path d="M22.6964 14.7642C22.6964 14.7642 8.12658 20.754 7.54378 42.1555C7.12288 57.7614 20.0091 70.0001 20.0091 70.0001V68.6402C20.0091 68.6402 4.40317 52.2248 11.5586 34.1582C14.2783 27.2618 19.7501 27.2295 19.8796 30.3053C20.0091 33.3812 14.5373 38.5939 12.2061 40.4718C12.2061 40.4718 20.9157 39.6948 25.4485 26.6791C28.8805 16.7716 22.6964 14.7642 22.6964 14.7642Z" fill="#CDA922"/>
<path d="M51.0161 14.7V34.3H47.1241V25.984H39.0881V34.3H35.1961V14.7H39.0881V22.932H47.1241V14.7H51.0161Z" fill="#CDA922"/>
<path d="M61.6707 14.7C63.2387 14.7 64.5547 15.0173 65.6187 15.652C66.6827 16.2867 67.4667 17.1173 67.9707 18.144C68.4747 19.1707 68.7267 20.272 68.7267 21.448C68.7267 22.624 68.4747 23.716 67.9707 24.724C67.4854 25.7133 66.7107 26.516 65.6467 27.132C64.5827 27.748 63.2574 28.056 61.6707 28.056H58.2267V34.3H54.4187V14.7H61.6707ZM61.0827 24.864C62.1841 24.864 63.1081 24.6027 63.8547 24.08C64.6014 23.5573 64.9747 22.68 64.9747 21.448C64.9747 20.216 64.6014 19.3573 63.8547 18.872C63.1267 18.368 62.2027 18.116 61.0827 18.116H58.2267V24.864H61.0827Z" fill="#CDA922"/>
<path d="M81.1988 18.088V22.82H88.7308V25.844H81.1988V34.3H77.3068V14.7H89.7388V18.088H81.1988Z" fill="#CDA922"/>
<path d="M100.092 34.524C98.1689 34.524 96.5262 34.0853 95.1635 33.208C93.8195 32.312 92.8022 31.108 92.1116 29.596C91.4396 28.0653 91.1036 26.3667 91.1036 24.5C91.1036 22.6147 91.4489 20.9067 92.1395 19.376C92.8302 17.8267 93.8475 16.5947 95.1915 15.68C96.5542 14.7653 98.1875 14.308 100.092 14.308C101.996 14.308 103.62 14.7653 104.964 15.68C106.308 16.576 107.325 17.7987 108.016 19.348C108.706 20.8787 109.052 22.596 109.052 24.5C109.052 26.3853 108.706 28.0933 108.016 29.624C107.325 31.136 106.298 32.3307 104.936 33.208C103.592 34.0853 101.977 34.524 100.092 34.524ZM100.092 31.052C101.622 31.052 102.808 30.436 103.648 29.204C104.488 27.9533 104.908 26.3667 104.908 24.444C104.908 23.212 104.721 22.092 104.348 21.084C103.993 20.076 103.452 19.2733 102.724 18.676C101.996 18.0787 101.118 17.78 100.092 17.78C99.0649 17.78 98.1782 18.088 97.4316 18.704C96.7036 19.3013 96.1529 20.104 95.7796 21.112C95.4062 22.12 95.2195 23.24 95.2195 24.472C95.2195 26.3573 95.6396 27.9253 96.4796 29.176C97.3382 30.4267 98.5422 31.052 100.092 31.052Z" fill="#CDA922"/>
<path d="M120.463 34.524C118.54 34.524 116.897 34.0853 115.535 33.208C114.191 32.312 113.173 31.108 112.483 29.596C111.811 28.0653 111.475 26.3667 111.475 24.5C111.475 22.6147 111.82 20.9067 112.511 19.376C113.201 17.8267 114.219 16.5947 115.563 15.68C116.925 14.7653 118.559 14.308 120.463 14.308C122.367 14.308 123.991 14.7653 125.335 15.68C126.679 16.576 127.696 17.7987 128.387 19.348C129.077 20.8787 129.423 22.596 129.423 24.5C129.423 26.3853 129.077 28.0933 128.387 29.624C127.696 31.136 126.669 32.3307 125.307 33.208C123.963 34.0853 122.348 34.524 120.463 34.524ZM120.463 31.052C121.993 31.052 123.179 30.436 124.019 29.204C124.859 27.9533 125.279 26.3667 125.279 24.444C125.279 23.212 125.092 22.092 124.719 21.084C124.364 20.076 123.823 19.2733 123.095 18.676C122.367 18.0787 121.489 17.78 120.463 17.78C119.436 17.78 118.549 18.088 117.803 18.704C117.075 19.3013 116.524 20.104 116.151 21.112C115.777 22.12 115.591 23.24 115.591 24.472C115.591 26.3573 116.011 27.9253 116.851 29.176C117.709 30.4267 118.913 31.052 120.463 31.052Z" fill="#CDA922"/>
<path d="M132.239 14.672H139.855C141.591 14.672 143.122 15.064 144.447 15.848C145.772 16.6133 146.799 17.7333 147.527 19.208C148.274 20.6827 148.647 22.4373 148.647 24.472C148.647 26.5067 148.274 28.2613 147.527 29.736C146.78 31.2107 145.735 32.34 144.391 33.124C143.066 33.8893 141.535 34.272 139.799 34.272H132.239V14.672ZM139.099 30.8C140.76 30.8 142.076 30.3053 143.047 29.316C144.018 28.3267 144.503 26.7027 144.503 24.444C144.503 22.1853 144.018 20.5707 143.047 19.6C142.076 18.6107 140.76 18.116 139.099 18.116H136.019V30.8H139.099Z" fill="#CDA922"/>
<path d="M43.8481 42.84V54.6H42.1009V49.392H36.5065V54.6H34.7593V42.84H36.5065V47.9976H42.1009V42.84H43.8481Z" fill="#CDA922"/>
<path d="M50.7648 54.7512C49.2752 54.7512 48.116 54.2976 47.2872 53.3904C46.4584 52.4832 46.044 51.1616 46.044 49.4256V42.84H47.7576V49.3584C47.7576 50.3104 47.9592 51.1728 48.3624 51.9456C48.7768 52.7072 49.5776 53.088 50.7648 53.088C51.9184 53.088 52.6968 52.7072 53.1 51.9456C53.5144 51.184 53.7216 50.3216 53.7216 49.3584V42.84H55.452V49.4256C55.452 51.1616 55.032 52.4832 54.192 53.3904C53.3632 54.2976 52.2208 54.7512 50.7648 54.7512Z" fill="#CDA922"/>
<path d="M62.6356 54.7176C61.5044 54.7176 60.5356 54.46 59.7292 53.9448C58.934 53.4184 58.3292 52.7016 57.9148 51.7944C57.5004 50.876 57.2932 49.84 57.2932 48.6864C57.2932 47.5328 57.5004 46.4968 57.9148 45.5784C58.3292 44.6488 58.9396 43.9208 59.746 43.3944C60.5524 42.8568 61.5156 42.588 62.6356 42.588C63.7444 42.588 64.6964 42.8512 65.4916 43.3776C66.298 43.904 66.9084 44.632 67.3228 45.5616C67.7372 46.48 67.9444 47.5272 67.9444 48.7032C67.9444 49.868 67.7372 50.904 67.3228 51.8112C66.9084 52.7184 66.298 53.4296 65.4916 53.9448C64.6964 54.46 63.7444 54.7176 62.6356 54.7176ZM62.6188 53.1384C63.3356 53.1384 63.9572 52.948 64.4836 52.5672C65.01 52.1864 65.4132 51.66 65.6932 50.988C65.9732 50.3048 66.1132 49.532 66.1132 48.6696C66.1132 47.8072 65.9732 47.04 65.6932 46.368C65.4132 45.6848 65.01 45.1472 64.4836 44.7552C63.9572 44.3632 63.3356 44.1672 62.6188 44.1672C61.902 44.1672 61.2804 44.3632 60.754 44.7552C60.2276 45.1472 59.8244 45.6848 59.5444 46.368C59.2644 47.0512 59.1244 47.8184 59.1244 48.6696C59.1244 49.5208 59.2644 50.288 59.5444 50.9712C59.8244 51.6432 60.2276 52.1752 60.754 52.5672C61.2804 52.948 61.902 53.1384 62.6188 53.1384Z" fill="#CDA922"/>
<path d="M69.9507 42.84H71.9331L77.7459 51.8616H77.7963V42.84H79.5267V54.6H77.5107L71.7315 45.7632H71.6811V54.6H69.9507V42.84Z" fill="#CDA922"/>
<path d="M86.6332 54.7176C85.502 54.7176 84.55 54.4264 83.7772 53.844C83.0156 53.2616 82.45 52.5112 82.0804 51.5928C81.7108 50.6744 81.526 49.7056 81.526 48.6864C81.526 47.6448 81.7108 46.6648 82.0804 45.7464C82.4612 44.8168 83.0436 44.0608 83.8276 43.4784C84.6228 42.8848 85.6084 42.588 86.7844 42.588C88.106 42.588 89.1756 42.952 89.9932 43.68C90.822 44.3968 91.3932 45.3096 91.7068 46.4184H89.8756C89.6628 45.7016 89.2988 45.1472 88.7836 44.7552C88.2796 44.3632 87.6132 44.1672 86.7844 44.1672C85.6756 44.1672 84.8132 44.576 84.1972 45.3936C83.5924 46.2112 83.29 47.32 83.29 48.72C83.29 50.1536 83.6092 51.2736 84.2476 52.08C84.886 52.8864 85.7596 53.2896 86.8684 53.2896C87.5292 53.2896 88.0948 53.1496 88.5652 52.8696C89.0468 52.5896 89.4108 52.2088 89.6572 51.7272C89.9036 51.2456 90.0324 50.708 90.0436 50.1144L90.0604 49.7112H87.0364V48.4344H91.7236V54.6H90.3796V52.7184H90.2452C90.0772 53.0096 89.898 53.2784 89.7076 53.5248C89.5284 53.76 89.1756 54.0176 88.6492 54.2976C88.1228 54.5776 87.4508 54.7176 86.6332 54.7176Z" fill="#CDA922"/>
<path d="M101.859 42.84C102.811 42.84 103.595 43.0304 104.211 43.4112C104.827 43.792 105.275 44.2792 105.555 44.8728C105.835 45.4664 105.975 46.0992 105.975 46.7712C105.975 47.432 105.835 48.0536 105.555 48.636C105.275 49.2184 104.827 49.7 104.211 50.0808C103.595 50.4504 102.811 50.6352 101.859 50.6352H99.4397V54.6H97.7429V42.84H101.859ZM101.624 49.1568C102.374 49.1568 103.007 48.9776 103.522 48.6192C104.037 48.2608 104.295 47.6448 104.295 46.7712C104.295 45.8976 104.037 45.2872 103.522 44.94C103.007 44.5816 102.374 44.4024 101.624 44.4024H99.4397V49.1568H101.624Z" fill="#CDA922"/>
<path d="M116.922 42.84V54.6H115.174V49.392H109.58V54.6H107.833V42.84H109.58V47.9976H115.174V42.84H116.922Z" fill="#CDA922"/>
<path d="M124.225 54.7176C123.093 54.7176 122.125 54.46 121.318 53.9448C120.523 53.4184 119.918 52.7016 119.504 51.7944C119.089 50.876 118.882 49.84 118.882 48.6864C118.882 47.5328 119.089 46.4968 119.504 45.5784C119.918 44.6488 120.529 43.9208 121.335 43.3944C122.141 42.8568 123.105 42.588 124.225 42.588C125.333 42.588 126.285 42.8512 127.081 43.3776C127.887 43.904 128.497 44.632 128.912 45.5616C129.326 46.48 129.533 47.5272 129.533 48.7032C129.533 49.868 129.326 50.904 128.912 51.8112C128.497 52.7184 127.887 53.4296 127.081 53.9448C126.285 54.46 125.333 54.7176 124.225 54.7176ZM124.208 53.1384C124.925 53.1384 125.546 52.948 126.073 52.5672C126.599 52.1864 127.002 51.66 127.282 50.988C127.562 50.3048 127.702 49.532 127.702 48.6696C127.702 47.8072 127.562 47.04 127.282 46.368C127.002 45.6848 126.599 45.1472 126.073 44.7552C125.546 44.3632 124.925 44.1672 124.208 44.1672C123.491 44.1672 122.869 44.3632 122.343 44.7552C121.817 45.1472 121.413 45.6848 121.133 46.368C120.853 47.0512 120.713 47.8184 120.713 48.6696C120.713 49.5208 120.853 50.288 121.133 50.9712C121.413 51.6432 121.817 52.1752 122.343 52.5672C122.869 52.948 123.491 53.1384 124.208 53.1384Z" fill="#CDA922"/>
<path d="M140.2 54.7176C139.068 54.7176 138.116 54.4264 137.344 53.844C136.582 53.2616 136.016 52.5112 135.647 51.5928C135.277 50.6744 135.092 49.7056 135.092 48.6864C135.092 47.6448 135.277 46.6648 135.647 45.7464C136.028 44.8168 136.61 44.0608 137.394 43.4784C138.189 42.8848 139.175 42.588 140.351 42.588C141.672 42.588 142.742 42.952 143.56 43.68C144.388 44.3968 144.96 45.3096 145.273 46.4184H143.442C143.229 45.7016 142.865 45.1472 142.35 44.7552C141.846 44.3632 141.18 44.1672 140.351 44.1672C139.242 44.1672 138.38 44.576 137.764 45.3936C137.159 46.2112 136.856 47.32 136.856 48.72C136.856 50.1536 137.176 51.2736 137.814 52.08C138.452 52.8864 139.326 53.2896 140.435 53.2896C141.096 53.2896 141.661 53.1496 142.132 52.8696C142.613 52.5896 142.977 52.2088 143.224 51.7272C143.47 51.2456 143.599 50.708 143.61 50.1144L143.627 49.7112H140.603V48.4344H145.29V54.6H143.946V52.7184H143.812C143.644 53.0096 143.464 53.2784 143.274 53.5248C143.095 53.76 142.742 54.0176 142.216 54.2976C141.689 54.5776 141.017 54.7176 140.2 54.7176Z" fill="#CDA922"/>
<path d="M151.247 50.0472H149.315V54.6H147.585V42.84H151.701C152.653 42.84 153.437 43.0192 154.053 43.3776C154.669 43.7248 155.117 44.1728 155.397 44.7216C155.677 45.2704 155.817 45.8528 155.817 46.4688C155.817 47.2752 155.587 47.9976 155.128 48.636C154.669 49.2744 153.963 49.7 153.011 49.9128L155.968 54.6H154.087L151.247 50.0472ZM149.315 48.5856H151.466C152.216 48.5856 152.849 48.4288 153.364 48.1152C153.879 47.7904 154.137 47.2416 154.137 46.4688C154.137 45.7072 153.879 45.1696 153.364 44.856C152.849 44.5424 152.216 44.3856 151.466 44.3856H149.315V48.5856Z" fill="#CDA922"/>
<path d="M162.763 54.7176C161.632 54.7176 160.663 54.46 159.857 53.9448C159.061 53.4184 158.457 52.7016 158.042 51.7944C157.628 50.876 157.421 49.84 157.421 48.6864C157.421 47.5328 157.628 46.4968 158.042 45.5784C158.457 44.6488 159.067 43.9208 159.873 43.3944C160.68 42.8568 161.643 42.588 162.763 42.588C163.872 42.588 164.824 42.8512 165.619 43.3776C166.425 43.904 167.036 44.632 167.45 45.5616C167.865 46.48 168.072 47.5272 168.072 48.7032C168.072 49.868 167.865 50.904 167.45 51.8112C167.036 52.7184 166.425 53.4296 165.619 53.9448C164.824 54.46 163.872 54.7176 162.763 54.7176ZM162.746 53.1384C163.463 53.1384 164.085 52.948 164.611 52.5672C165.137 52.1864 165.541 51.66 165.821 50.988C166.101 50.3048 166.241 49.532 166.241 48.6696C166.241 47.8072 166.101 47.04 165.821 46.368C165.541 45.6848 165.137 45.1472 164.611 44.7552C164.085 44.3632 163.463 44.1672 162.746 44.1672C162.029 44.1672 161.408 44.3632 160.881 44.7552C160.355 45.1472 159.952 45.6848 159.672 46.368C159.392 47.0512 159.252 47.8184 159.252 48.6696C159.252 49.5208 159.392 50.288 159.672 50.9712C159.952 51.6432 160.355 52.1752 160.881 52.5672C161.408 52.948 162.029 53.1384 162.746 53.1384Z" fill="#CDA922"/>
<path d="M174.681 54.7512C173.192 54.7512 172.032 54.2976 171.204 53.3904C170.375 52.4832 169.96 51.1616 169.96 49.4256V42.84H171.674V49.3584C171.674 50.3104 171.876 51.1728 172.279 51.9456C172.693 52.7072 173.494 53.088 174.681 53.088C175.835 53.088 176.613 52.7072 177.016 51.9456C177.431 51.184 177.638 50.3216 177.638 49.3584V42.84H179.368V49.4256C179.368 51.1616 178.948 52.4832 178.108 53.3904C177.28 54.2976 176.137 54.7512 174.681 54.7512Z" fill="#CDA922"/>
<path d="M185.744 42.84C186.696 42.84 187.48 43.0304 188.096 43.4112C188.712 43.792 189.16 44.2792 189.44 44.8728C189.72 45.4664 189.86 46.0992 189.86 46.7712C189.86 47.432 189.72 48.0536 189.44 48.636C189.16 49.2184 188.712 49.7 188.096 50.0808C187.48 50.4504 186.696 50.6352 185.744 50.6352H183.325V54.6H181.628V42.84H185.744ZM185.509 49.1568C186.259 49.1568 186.892 48.9776 187.407 48.6192C187.922 48.2608 188.18 47.6448 188.18 46.7712C188.18 45.8976 187.922 45.2872 187.407 44.94C186.892 44.5816 186.259 44.4024 185.509 44.4024H183.325V49.1568H185.509Z" fill="#CDA922"/>
</g>
<defs>
<clipPath id="clip0_362_861">
<rect width="191.1" height="70" fill="white"/>
</clipPath>
</defs>
</svg>
