<svg width="36" height="36" viewBox="0 0 36 36" fill="none" xmlns="http://www.w3.org/2000/svg">
<g clip-path="url(#clip0_702_3459)">
<path d="M33.9528 15.341C33.3987 14.9325 32.7007 14.4222 32.6161 14.0889C32.6517 13.4435 32.8359 12.8152 33.1546 12.2529C33.6429 11.1323 34.1469 9.97095 33.5866 9.00523C33.0263 8.03951 31.7522 7.88302 30.5267 7.75309C29.8915 7.74883 29.2656 7.59946 28.697 7.31641C28.4135 6.74577 28.2646 6.11768 28.2618 5.48049C28.1241 4.25498 27.9817 2.98721 27.0097 2.4206C26.0377 1.85399 24.8748 2.35017 23.7542 2.84473C23.1913 3.16321 22.5625 3.34743 21.9168 3.38316C21.5787 3.29241 21.07 2.60057 20.6646 2.0465C19.9541 1.08863 19.1542 0.00244141 17.9991 0.00244141C16.844 0.00244141 16.0443 1.08863 15.3384 2.0465C14.9283 2.60211 14.4196 3.29865 14.0862 3.3847C13.441 3.34582 12.8129 3.16182 12.2487 2.84627C11.1218 2.35009 9.96052 1.85553 8.99795 2.41275C8.03538 2.96996 7.8742 4.24713 7.73642 5.48042C7.73194 6.1154 7.58315 6.74107 7.30128 7.3101C6.73372 7.58911 6.11032 7.7357 5.4779 7.73893C4.25085 7.87664 2.98146 8.01911 2.41647 8.99107C1.85147 9.96303 2.34773 11.1245 2.84229 12.2467C3.16195 12.8108 3.34624 13.4414 3.38072 14.0889C3.28997 14.4269 2.59812 14.9372 2.04406 15.341C1.08619 16.0453 0 16.8467 0 18.0018C0 19.1569 1.08619 19.9582 2.04568 20.6626C2.59974 21.0711 3.29782 21.5813 3.38234 21.9147C3.34683 22.56 3.16253 23.1883 2.8439 23.7506C2.35558 24.8713 1.85162 26.0326 2.41192 26.9983C2.97222 27.9641 4.2463 28.1205 5.47181 28.2505C6.10702 28.2547 6.73284 28.4041 7.3015 28.6872C7.58499 29.2578 7.73385 29.8859 7.73664 30.5231C7.87434 31.7486 8.01682 33.0164 8.98878 33.583C9.96074 34.1496 11.1143 33.6393 12.2365 33.151C12.805 32.836 13.4375 32.6541 14.0865 32.6189C14.4246 32.7096 14.9332 33.4015 15.3386 33.9555C16.0445 34.9134 16.8443 35.9996 17.9994 35.9996C19.1545 35.9996 19.9543 34.9134 20.6602 33.9555C21.0702 33.3999 21.579 32.7034 21.9123 32.6173C22.558 32.6539 23.1866 32.838 23.7498 33.1558C24.8705 33.6441 26.0318 34.145 26.9959 33.5893C27.96 33.0337 28.1197 31.7549 28.2574 30.5278C28.2619 29.8929 28.4107 29.2672 28.6926 28.6982C29.2612 28.4169 29.8863 28.2686 30.5206 28.2646C31.7477 28.1269 33.0171 27.9845 33.5821 27.0125C34.1471 26.0405 33.6369 24.887 33.1501 23.7648C32.8315 23.1978 32.6493 22.5644 32.618 21.9148C32.7087 21.5767 33.4006 21.0664 33.9546 20.6626C34.9125 19.9568 36.0003 19.1554 36.0003 18.0019C36.0003 16.8483 34.9122 16.0453 33.9528 15.341Z" fill="white"/>
<path d="M13.3037 21.9145C13.0574 21.9145 12.8255 21.7985 12.6777 21.6015L9.39088 17.2191V21.1319C9.39088 21.5641 9.04048 21.9145 8.60828 21.9145C8.17608 21.9145 7.82568 21.5641 7.82568 21.1319V14.8713C7.82568 14.4391 8.17608 14.0887 8.60828 14.0887C8.85457 14.0887 9.08656 14.2047 9.23432 14.4018L12.5211 18.7842V14.8713C12.5211 14.4391 12.8715 14.0887 13.3037 14.0887C13.7359 14.0887 14.0863 14.4391 14.0863 14.8713V21.1319C14.0861 21.4686 13.8705 21.7674 13.551 21.8738C13.4714 21.9008 13.3879 21.9145 13.3037 21.9145Z" fill="#CDA922"/>
<path d="M19.5643 21.9137H16.434C16.0018 21.9137 15.6514 21.5633 15.6514 21.1311V14.8705C15.6514 14.4383 16.0018 14.0879 16.434 14.0879H19.5643C19.9965 14.0879 20.3469 14.4383 20.3469 14.8705C20.3469 15.3027 19.9965 15.6531 19.5643 15.6531H17.2166V20.3485H19.5643C19.9965 20.3485 20.3469 20.6989 20.3469 21.1311C20.3469 21.5633 19.9965 21.9137 19.5643 21.9137Z" fill="#CDA922"/>
<path d="M19.5643 18.7834H16.434C16.0018 18.7834 15.6514 18.433 15.6514 18.0008C15.6514 17.5686 16.0018 17.2182 16.434 17.2182H19.5643C19.9965 17.2182 20.3469 17.5686 20.3469 18.0008C20.3469 18.433 19.9965 18.7834 19.5643 18.7834Z" fill="#CDA922"/>
<path d="M27.39 21.9137C27.0528 21.9141 26.7531 21.6984 26.6466 21.3784L25.8249 18.9101L25.0032 21.3784C24.9032 21.7161 24.5813 21.9384 24.23 21.9121C23.8824 21.8989 23.5853 21.6579 23.5007 21.3205L21.9355 15.0599C21.8309 14.6403 22.0864 14.2153 22.506 14.1107C22.9257 14.006 23.3507 14.2615 23.4553 14.6812L24.3678 18.3342L25.083 16.1884C25.269 15.7782 25.7523 15.5965 26.1625 15.7825C26.3425 15.8641 26.4868 16.0083 26.5684 16.1884L27.2837 18.3342L28.1961 14.6812C28.3007 14.2615 28.7257 14.006 29.1454 14.1107C29.5651 14.2153 29.8205 14.6402 29.7159 15.0599L28.1508 21.3205C28.0662 21.6579 27.769 21.8989 27.4214 21.9121L27.39 21.9137Z" fill="#CDA922"/>
</g>
<defs>
<clipPath id="clip0_702_3459">
<rect width="36" height="36" fill="white"/>
</clipPath>
</defs>
</svg>
