<svg width="48" height="49" viewBox="0 0 48 49" fill="none" xmlns="http://www.w3.org/2000/svg">
<g clip-path="url(#clip0_826_5648)">
<path d="M45.2704 20.9539C44.5317 20.4092 43.6009 19.7288 43.4882 19.2843C43.5355 18.4239 43.7813 17.5861 44.2061 16.8364C44.8572 15.3422 45.5291 13.7938 44.7821 12.5062C44.035 11.2185 42.3362 11.0099 40.7022 10.8366C39.8553 10.831 39.0209 10.6318 38.2626 10.2544C37.8847 9.49354 37.6862 8.65609 37.6825 7.8065C37.4988 6.17249 37.3089 4.48213 36.0129 3.72665C34.717 2.97117 33.1664 3.63274 31.6723 4.29216C30.9218 4.7168 30.0834 4.96243 29.2223 5.01007C28.7716 4.88907 28.0934 3.96661 27.5528 3.22786C26.6054 1.95069 25.5389 0.502441 23.9988 0.502441C22.4587 0.502441 21.3924 1.95069 20.4511 3.22786C19.9044 3.96866 19.2261 4.89738 18.7816 5.01213C17.9214 4.96028 17.0838 4.71494 16.3317 4.29421C14.8291 3.63264 13.2807 2.97323 11.9973 3.71618C10.7138 4.45914 10.4989 6.16202 10.3152 7.80641C10.3093 8.65305 10.1109 9.48728 9.73504 10.246C8.97829 10.618 8.1471 10.8135 7.30387 10.8178C5.6678 11.0014 3.97529 11.1913 3.22196 12.4873C2.46863 13.7832 3.1303 15.3318 3.78972 16.8281C4.21593 17.5803 4.46166 18.4211 4.50763 19.2843C4.38663 19.7351 3.46417 20.4154 2.72542 20.9539C1.44825 21.8929 0 22.9615 0 24.5016C0 26.0417 1.44825 27.1102 2.72757 28.0493C3.46632 28.5939 4.39709 29.2743 4.50978 29.7188C4.46244 30.5792 4.21671 31.417 3.79187 32.1667C3.14077 33.6609 2.46883 35.2093 3.21589 36.497C3.96296 37.7846 5.66174 37.9932 7.29575 38.1665C8.14269 38.1722 8.97712 38.3713 9.73533 38.7487C10.1133 39.5096 10.3118 40.347 10.3155 41.1966C10.4991 42.8306 10.6891 44.521 11.985 45.2765C13.281 46.032 14.819 45.3516 16.3153 44.7005C17.0733 44.2806 17.9167 44.038 18.782 43.991C19.2328 44.112 19.911 45.0345 20.4515 45.7732C21.3927 47.0504 22.4591 48.4986 23.9992 48.4986C25.5393 48.4986 26.6057 47.0504 27.5469 45.7732C28.0937 45.0324 28.772 44.1037 29.2165 43.9889C30.0773 44.0377 30.9154 44.2832 31.6664 44.7069C33.1606 45.358 34.7091 46.0258 35.9945 45.2849C37.28 44.5441 37.4929 42.8391 37.6766 41.203C37.6826 40.3563 37.8809 39.5221 38.2568 38.7634C39.0149 38.3884 39.8484 38.1907 40.6942 38.1854C42.3303 38.0018 44.0228 37.8118 44.7761 36.5158C45.5294 35.2199 44.8492 33.6819 44.2001 32.1856C43.7753 31.4296 43.5324 30.585 43.4906 29.7189C43.6116 29.2681 44.5341 28.5878 45.2729 28.0494C46.55 27.1082 48.0004 26.0397 48.0004 24.5017C48.0004 22.9636 46.5496 21.8929 45.2704 20.9539Z" fill="#25CD22"/>
<path d="M17.7383 29.7189C17.4099 29.7189 17.1006 29.5642 16.9035 29.3015L12.5211 23.4583V28.6754C12.5211 29.2517 12.0539 29.7189 11.4777 29.7189C10.9014 29.7189 10.4342 29.2517 10.4342 28.6754V20.328C10.4342 19.7517 10.9014 19.2845 11.4777 19.2845C11.8061 19.2845 12.1154 19.4392 12.3124 19.702L16.6948 25.5451V20.328C16.6948 19.7517 17.162 19.2845 17.7383 19.2845C18.3145 19.2845 18.7817 19.7517 18.7817 20.328V28.6754C18.7814 29.1243 18.4939 29.5228 18.068 29.6646C17.9618 29.7006 17.8505 29.7189 17.7383 29.7189Z" fill="#FAFAFA"/>
<path d="M26.0858 29.7182H21.912C21.3357 29.7182 20.8685 29.251 20.8685 28.6747V20.3273C20.8685 19.751 21.3357 19.2838 21.912 19.2838H26.0858C26.662 19.2838 27.1292 19.751 27.1292 20.3273C27.1292 20.9035 26.662 21.3707 26.0858 21.3707H22.9555V27.6313H26.0858C26.662 27.6313 27.1292 28.0985 27.1292 28.6748C27.1292 29.2511 26.662 29.7182 26.0858 29.7182Z" fill="#FAFAFA"/>
<path d="M26.0858 25.5446H21.912C21.3357 25.5446 20.8685 25.0774 20.8685 24.5011C20.8685 23.9248 21.3357 23.4576 21.912 23.4576H26.0858C26.662 23.4576 27.1292 23.9248 27.1292 24.5011C27.1292 25.0774 26.662 25.5446 26.0858 25.5446Z" fill="#FAFAFA"/>
<path d="M36.5201 29.7182C36.0704 29.7188 35.6709 29.4312 35.5289 29.0045L34.4333 25.7135L33.3377 29.0045C33.2043 29.4548 32.7751 29.7512 32.3067 29.7162C31.8432 29.6986 31.4471 29.3772 31.3343 28.9273L29.2474 20.5799C29.1079 20.0204 29.4486 19.4537 30.0081 19.3142C30.5676 19.1747 31.1343 19.5153 31.2738 20.0749L32.4904 24.9456L33.4441 22.0845C33.6921 21.5376 34.3364 21.2953 34.8833 21.5433C35.1234 21.6521 35.3157 21.8445 35.4246 22.0845L36.3782 24.9456L37.5949 20.0749C37.7344 19.5153 38.3009 19.1747 38.8606 19.3142C39.4201 19.4537 39.7607 20.0203 39.6212 20.5799L37.5344 28.9273C37.4216 29.3772 37.0253 29.6986 36.562 29.7162L36.5201 29.7182Z" fill="#FAFAFA"/>
</g>
<defs>
<clipPath id="clip0_826_5648">
<rect width="48" height="48" fill="white" transform="translate(0 0.5)"/>
</clipPath>
</defs>
</svg>
