<svg width="20" height="19" viewBox="0 0 20 19" fill="none" xmlns="http://www.w3.org/2000/svg">
<circle cx="10" cy="9.5" r="9.25" fill="white" stroke="#E8C544" stroke-width="0.5"/>
<circle cx="10" cy="9.5" r="8" fill="#E8C544"/>
<path d="M10.061 14C9.40244 14 8.84146 13.8589 8.37805 13.5768C7.92276 13.2946 7.57724 12.9336 7.34146 12.4938C7.11382 12.0539 7 11.5934 7 11.112V11.0747H7.92683V11.1245C7.92683 11.4398 8 11.7552 8.14634 12.0705C8.29268 12.3859 8.52439 12.6515 8.84146 12.8672C9.16667 13.083 9.57724 13.1909 10.0732 13.1909C10.6585 13.1909 11.1423 13.0373 11.5244 12.7303C11.9146 12.4149 12.1098 11.9959 12.1098 11.473C12.1098 11.0332 11.9715 10.6888 11.6951 10.4398C11.4187 10.1909 11.065 10.0249 10.6341 9.94191L9.32927 9.6805C8.85772 9.58921 8.39024 9.38589 7.92683 9.07054C7.46341 8.75519 7.23171 8.21162 7.23171 7.43983C7.23171 6.95851 7.34553 6.53527 7.57317 6.17012C7.80081 5.79668 8.12195 5.51037 8.53659 5.3112C8.95935 5.10373 9.43902 5 9.97561 5C10.5935 5 11.122 5.12863 11.561 5.38589C12 5.64315 12.3293 5.97925 12.5488 6.39419C12.7683 6.80083 12.878 7.22407 12.878 7.6639V7.70124H11.9512V7.6639C11.9512 7.39834 11.8862 7.12448 11.7561 6.84232C11.6341 6.55187 11.4228 6.3029 11.122 6.09544C10.8293 5.88797 10.439 5.78423 9.95122 5.78423C9.37398 5.78423 8.9187 5.94191 8.58537 6.25726C8.25203 6.57261 8.08537 6.9668 8.08537 7.43983C8.08537 7.82988 8.20732 8.14938 8.45122 8.39834C8.70325 8.6473 9.04878 8.81743 9.48781 8.90871L10.6463 9.13278C12.2154 9.45643 13 10.2282 13 11.4481C13 11.9378 12.878 12.3776 12.6341 12.7676C12.3902 13.1494 12.0447 13.4523 11.5976 13.6763C11.1585 13.8921 10.6463 14 10.061 14Z" fill="white"/>
</svg>
