<svg width="36" height="36" viewBox="0 0 36 36" fill="none" xmlns="http://www.w3.org/2000/svg">
<g clip-path="url(#clip0_330_2480)">
<path d="M6.82764 24.8275C6.82764 30.9979 11.8297 35.9999 18.0001 35.9999C24.1704 35.9999 29.1725 30.9979 29.1725 24.8275C29.1725 18.6206 26.0691 13.6551 28.1513 9.31024C28.1513 9.31024 24.8276 9.93096 22.9656 14.8964C22.9656 14.8964 16.7587 8.68952 19.352 -0.00012207C19.352 -0.00012207 13.0346 2.48261 13.6953 10.5516C14.2618 17.4708 13.0346 18.6206 13.0346 18.6206C13.0346 13.0344 8.66715 10.5516 8.66715 10.5516C9.93109 17.3792 6.82764 19.2413 6.82764 24.8275Z" fill="#D02828"/>
<path d="M26.0646 27.4735C26.0646 32.1206 22.4764 36.0879 17.83 35.9982C13.4574 35.914 10.2041 32.5871 10.5518 28.2413C10.707 26.3017 12.1811 23.1594 14.5863 19.9784L16.1898 20.9482C16.138 17.0172 18 11.7931 18 11.7931C19.2232 17.2974 26.0646 18.7241 26.0646 27.4735Z" fill="#D02828"/>
<path d="M14.8968 23.5862C14.276 27.3103 13.0347 28.6662 13.0347 31.0345C13.0347 33.5173 15.2579 36 18.0002 36C20.7624 36 22.9734 33.7432 22.9657 30.981C22.9449 23.5625 18.6209 19.8621 18.6209 19.8621C19.2417 23.5862 17.3796 25.4483 17.3796 25.4483C16.6039 24.2849 14.8968 23.5862 14.8968 23.5862Z" fill="white"/>
</g>
<defs>
<clipPath id="clip0_330_2480">
<rect width="36" height="36" fill="white"/>
</clipPath>
</defs>
</svg>
