<svg width="32" height="32" viewBox="0 0 32 32" fill="none" xmlns="http://www.w3.org/2000/svg">
<rect x="0.5" y="0.5" width="31" height="31" rx="3.5" stroke="#CDA922"/>
<path d="M24.7832 11.3499C24.6842 10.9544 24.4826 10.5921 24.1988 10.2994C23.9149 10.0068 23.5589 9.79424 23.1666 9.68325C21.7332 9.33325 15.9999 9.33325 15.9999 9.33325C15.9999 9.33325 10.2666 9.33325 8.83324 9.71659C8.44095 9.82757 8.08489 10.0401 7.80103 10.3328C7.51717 10.6254 7.31556 10.9878 7.21657 11.3833C6.95425 12.8379 6.82594 14.3135 6.83324 15.7916C6.82389 17.2808 6.95221 18.7677 7.21657 20.2333C7.32571 20.6165 7.53183 20.965 7.81503 21.2453C8.09822 21.5256 8.44892 21.7281 8.83324 21.8333C10.2666 22.2166 15.9999 22.2166 15.9999 22.2166C15.9999 22.2166 21.7332 22.2166 23.1666 21.8333C23.5589 21.7223 23.9149 21.5097 24.1988 21.2171C24.4826 20.9244 24.6842 20.5621 24.7832 20.1666C25.0435 18.7229 25.1718 17.2585 25.1666 15.7916C25.1759 14.3024 25.0476 12.8155 24.7832 11.3499V11.3499Z" stroke="#CDA922" stroke-linecap="round" stroke-linejoin="round"/>
<path d="M14.125 18.5167L18.9167 15.7917L14.125 13.0667V18.5167Z" stroke="#CDA922" stroke-width="1.5" stroke-linecap="round" stroke-linejoin="round"/>
</svg>
