<svg width="32" height="32" viewBox="0 0 32 32" fill="none" xmlns="http://www.w3.org/2000/svg">
<rect x="0.5" y="0.5" width="31" height="31" rx="3.5" stroke="#CDA922"/>
<g clip-path="url(#clip0_549_665)">
<g clip-path="url(#clip1_549_665)">
<path fill-rule="evenodd" clip-rule="evenodd" d="M16.1592 14.5515V14.1498H17.3623V19.798H16.674C16.3906 19.798 16.1606 19.5692 16.1592 19.2862C16.159 19.2863 16.1588 19.2865 16.1586 19.2866C15.674 19.641 15.0749 19.8514 14.4279 19.8514C12.8073 19.8514 11.4934 18.5383 11.4934 16.9189C11.4934 15.2994 12.8073 13.9863 14.4279 13.9863C15.0749 13.9863 15.674 14.1967 16.1586 14.5511C16.1588 14.5512 16.159 14.5514 16.1592 14.5515ZM11.1816 12.3335V12.5166C11.1816 12.8582 11.136 13.137 10.914 13.4642L10.8872 13.4948C10.8387 13.5497 10.725 13.6788 10.6709 13.7488L6.8083 18.5969H11.1816V19.2832C11.1816 19.5676 10.9509 19.798 10.6664 19.798H5V19.4744C5 19.078 5.09848 18.9013 5.22295 18.717L9.34054 13.6205H5.17166V12.3335H11.1816ZM18.8217 19.798C18.585 19.798 18.3926 19.6057 18.3926 19.3693V12.3335H19.6805V19.798H18.8217ZM23.4884 13.951C25.1203 13.951 26.4427 15.2739 26.4427 16.9033C26.4427 18.534 25.1203 19.857 23.4884 19.857C21.8566 19.857 20.5342 18.534 20.5342 16.9033C20.5342 15.2739 21.8566 13.951 23.4884 13.951ZM14.4279 18.6442C15.3815 18.6442 16.1544 17.8719 16.1544 16.9189C16.1544 15.9672 15.3815 15.1949 14.4279 15.1949C13.4742 15.1949 12.7014 15.9672 12.7014 16.9189C12.7014 17.8719 13.4742 18.6442 14.4279 18.6442ZM23.4884 18.6413C24.4478 18.6413 25.2262 17.8633 25.2262 16.9033C25.2262 15.9446 24.4478 15.1667 23.4884 15.1667C22.5277 15.1667 21.7506 15.9446 21.7506 16.9033C21.7506 17.8633 22.5277 18.6413 23.4884 18.6413Z" fill="#CDA922"/>
</g>
</g>
<defs>
<clipPath id="clip0_549_665">
<rect width="22" height="22" fill="white" transform="translate(5 5)"/>
</clipPath>
<clipPath id="clip1_549_665">
<rect width="22" height="7.92" fill="white" transform="translate(5 12.3335)"/>
</clipPath>
</defs>
</svg>
